<?xml version="1.0" standalone="no"?>
<!DOCTYPE svg PUBLIC "-//W3C//DTD SVG 20010904//EN"
 "http://www.w3.org/TR/2001/REC-SVG-20010904/DTD/svg10.dtd">
<svg version="1.0" xmlns="http://www.w3.org/2000/svg"
 width="200.000000pt" height="200.000000pt" viewBox="0 0 200.000000 200.000000"
 preserveAspectRatio="xMidYMid meet">
<metadata>
Created by potrace 1.11, written by Peter Selinger 2001-2013
</metadata>
<g transform="translate(0.000000,200.000000) scale(0.100000,-0.100000)"
fill="#000000" stroke="none">
<path d="M0 1000 l0 -1000 411 2 411 3 14 40 c14 41 37 65 63 65 10 0 7 -8
-11 -27 -24 -26 -48 -65 -48 -77 0 -3 261 -6 580 -6 l580 0 0 1000 0 1000
-1000 0 -1000 0 0 -1000z m879 705 c1 -63 -2 -75 -15 -75 -14 0 -16 8 -10 53
8 56 16 97 21 97 2 0 3 -34 4 -75z m31 -175 c27 -85 25 -100 -16 -100 -27 0
-30 10 -39 108 -6 66 -5 72 11 72 15 0 25 -18 44 -80z m-40 -213 c0 -30 -27
-55 -67 -63 -55 -11 -54 29 3 67 40 26 64 25 64 -4z m-124 -118 c8 -13 -13
-29 -40 -29 -18 0 -18 1 -1 20 21 23 31 25 41 9z m221 -45 c-3 -3 -12 -4 -19
-1 -8 3 -5 6 6 6 11 1 17 -2 13 -5z m-207 -78 c0 -8 -4 -17 -9 -21 -12 -7 -24
12 -16 25 9 15 25 12 25 -4z m170 -7 c0 -11 -4 -17 -10 -14 -5 3 -10 13 -10
21 0 8 5 14 10 14 6 0 10 -9 10 -21z m-250 -155 c-10 -62 -24 -74 -44 -36 -9
17 -16 44 -16 59 0 27 2 29 33 25 l34 -4 -7 -44z"/>
</g>
</svg>
